<svg width="193" height="130" fill="none" xmlns="http://www.w3.org/2000/svg"><path d="M94.482 3.022v7.949c-1.41 1.169-2.91 2.45-4.526 3.864V7.531H74.76v21.076l-.437.4a1123.393 1123.393 0 0 0-4.09 3.829V3.022h24.248z" fill="url(#paint0_linear)"/><path d="M168.483 29.188l-4.245 2.95c-7.287-10.412-22.163-27.762-39.88-26.963-6.821.3-12.308 3.024-29.553 18.525a903.7 903.7 0 0 0-4.526 4.116 526.36 526.36 0 0 0-5.454 5.047l-2.887 2.699a4885.949 4885.949 0 0 0-4.785 4.509 1288.735 1288.735 0 0 0-27.507 26.847 821.068 821.068 0 0 0-4.526 4.583l-2.544-2.486-1.151-1.13a1261.103 1261.103 0 0 1 29.14-28.665c1.508-1.436 3.017-2.867 4.525-4.293 2.065-1.952 4.134-3.893 6.208-5.826a987.744 987.744 0 0 1 8.988-8.274 365.753 365.753 0 0 1 4.526-4.048C109.832 3.555 116.046.385 124.135.03c20.184-.898 36.45 17.878 44.348 29.157zm-30.517-7.002v18.59l-3.879 1.147v-2.667h-9.376v5.443l-3.88 1.146v-6.59h-9.376v9.34h.084l-3.963 1.173V22.186h30.39zm-17.135 3.865h-9.376v9.34h9.376v-9.34zm13.256 0h-9.376v9.34h9.376v-9.34z" fill="url(#paint1_linear)"/><path d="M45.446 88.948c-.029.103-.061.203-.093.306l.177-.055-.084-.251zm28.801-22.925c.947-.92 1.897-1.836 2.851-2.753a12.837 12.837 0 0 0-2.851 2.753zm33.203 4.743c0 .043-.023.083-.036.126l.069-.02c-.01-.036-.023-.07-.033-.106z" fill="#000"/><path d="M192.966 45.575a3.604 3.604 0 0 0-.821-2.132c-.802-.85-1.72-.882-1.91.322a21.35 21.35 0 0 1-.611 2.796c-.954 3.32-2.665 6.348-4.414 6.866-.556.165-.931-.27-1.196-1.162-.265-.892-.278-2.31-.084-4.02.24-1.91.603-3.802 1.09-5.665.507-2.197.86-3.997.905-5.507a7.359 7.359 0 0 0-.259-2.316 4.225 4.225 0 0 0-1.778-2.5c-.97-.62-1.616-.321-2.118 1.05a48.4 48.4 0 0 0-1.483 5.434 99.318 99.318 0 0 0-.692 3.385 44.16 44.16 0 0 1-4.704 2.783c.368-1.61.714-3.118.995-4.413a5.72 5.72 0 0 0-.08-3.124 6.071 6.071 0 0 0-1.016-1.932 5.732 5.732 0 0 0-.701-.77c-.857-.837-1.71-.644-2.121.628a85.84 85.84 0 0 0-.776 2.641c-.323 1.224-.672 2.5-.989 3.784a148.555 148.555 0 0 0-1.387 6.255l-.647 3.581a21.1 21.1 0 0 0-.158 1.395l-.023.08c-.97 3.25-2.347 6.233-3.796 6.66-.727.217-1.228-.24-1.525-1.242-.298-1.002-.243-2.374-.023-3.913a48.245 48.245 0 0 1 1.267-5.798 33.784 33.784 0 0 0 1.07-5.475c.035-.352.051-.706.049-1.06a6.819 6.819 0 0 0-.246-1.932 4.902 4.902 0 0 0-1.7-2.647c-.97-.748-1.782-.261-2.264 1.027-.685 1.73-1.092 3.781-1.6 6.319-.041.215-.086.437-.136.667-.388 1.932-.853 4.148-1.542 6.702a73.418 73.418 0 0 1-1.293 4.097c-1.196 3.417-2.457 5.977-3.514 6.29-1.232.364-1.678-1.746-1.336-4.27l.091-.613c.54-3.45 1.678-8.035 2.063-11.195.158-1.288.19-2.364 0-3.002a4.327 4.327 0 0 0-1.617-2.312c-.918-.644-1.959-.451-2.402.712a67.604 67.604 0 0 0-1.833 6.328 56.765 56.765 0 0 0-1.562 9.772v.022c-.09.442-.197.899-.323 1.35-.779 3.043-2.037 6.035-3.556 6.296-1.52.261-3.104-1.243-4.43-3.939a19.746 19.746 0 0 1-.986-2.396c4.462-3.658 6.263-6.812 7.281-10.051.142-.451.268-.902.385-1.36a4.728 4.728 0 0 0 .048-2.315c-.578-1.949-2.263-2.538-3.152-.583a41.993 41.993 0 0 1-3.217 6.016c-.181.277-.365.547-.553.812-.106.154-.213.302-.323.45a22.44 22.44 0 0 1-4.95 5.025c-.245.193-.397.3-.588.476.459-2.135.821-3.575.97-4.525.041-.231.073-.446.097-.644.017-.11.03-.217.039-.322a5.665 5.665 0 0 0-.162-2.164 5.578 5.578 0 0 0-1.006-1.7 6.677 6.677 0 0 1-.184-.252c-1.067-1.43-1.975-1.005-2.544.251l-.068.158a100.717 100.717 0 0 0-1.245 3.707c-.22.712-.42 1.385-.595 2.026a37.1 37.1 0 0 0-1.341 7.581c-.102.228 0 0-.641 1.302l-1.38 2.695c-1.442 3.343-3.712 6.764-6.941 7.66-1.523.389-2.978-.816-3.709-3.263a9.295 9.295 0 0 1-.262-1.166 17.437 17.437 0 0 1 .081-5.566 27.471 27.471 0 0 1 1.584-5.513c1.025-2.526 2.186-4.207 2.7-3.988.288.155.197 1.273-.032 2.551-.029.235-.055.457-.078.67-.236 2.122-.174 3.17.023 3.83.446 1.503 1.71 2.28 2.91 2.595 1.293.226 1.752-.035 1.829-1.208.047-.865.155-1.726.324-2.576.252-1.507.456-2.957.265-4.216a4.145 4.145 0 0 0-.97-2.18 7.057 7.057 0 0 0-1.72-1.23c-1.445-.758-3.233-1.18-4.649-.764a6.539 6.539 0 0 0-1.643.763c-2.107 1.324-4.144 3.975-5.392 7.66a22.942 22.942 0 0 0-.867 3.423 14.608 14.608 0 0 0 .191 6.966c.026.087.052.174.081.258.029.084.023.067.032.103l-.068.02c-.989 3.278-2.36 6.302-3.821 6.734-.724.212-1.225-.242-1.526-1.247-.301-1.005-.239-2.364-.026-3.897a49.08 49.08 0 0 1 1.271-5.797 33.782 33.782 0 0 0 1.073-5.475 8.17 8.17 0 0 0-.197-3.012 4.903 4.903 0 0 0-1.701-2.647c-.954-.747-1.781-.26-2.247 1.027-.688 1.733-1.096 3.785-1.616 6.332-.417 2.087-.906 4.51-1.672 7.356a80.232 80.232 0 0 1-1.293 4.11c-1.196 3.407-2.454 5.961-3.514 6.274-1.229.364-1.675-1.743-1.332-4.268.026-.196.058-.396.09-.599.534-3.446 1.672-8.032 2.056-11.195.165-1.307.198-2.373 0-3.014a4.313 4.313 0 0 0-1.6-2.313c-.921-.644-1.96-.45-2.402.709a68.179 68.179 0 0 0-1.836 6.345 56.35 56.35 0 0 0-1.562 9.8 12.61 12.61 0 0 0-.026 1.253c0 .322.036.667.075.986-1.045 2.853-2.396 5.24-3.605 5.597-.84.248-1.445-.36-1.778-1.472a8.473 8.473 0 0 1-.123-3.478v-.026c.213-1.343.805-4.219 1.293-5.99.478-1.66.815-3.392 1.057-4.616.036-.23.056-.462.058-.695a5.233 5.233 0 0 0-.22-1.678c-.646-2.116-2.828-3.585-4.338-3.137-.311.098-.607.24-.88.418a12.703 12.703 0 0 0-2.851 2.754c-.748.935-1.43 1.92-2.04 2.95a5.326 5.326 0 0 0-.178-.799l-.065-.218a5.74 5.74 0 0 0-1.594-2.496c-.863-.645-1.645-.422-2.088.74a38.23 38.23 0 0 1-2.739 6.493c-1.086 1.978-2.308 3.598-3.556 4.393a13.985 13.985 0 0 0-1.203-2.982 5.561 5.561 0 0 0-2.295-2.222 11.45 11.45 0 0 1-1.264-.777c-1.387-.982-3.146-1.372-4.772-.708-2.939 1.13-5.225 4.454-6.466 8.084-.214.615-.395 1.24-.543 1.861a19.147 19.147 0 0 0-.375 1.89 15.046 15.046 0 0 0 .323 6.542c.016.058.036.113.052.17l.084.252-.178.055c-1.018 3.076-2.958 6.241-5.994 7.849 1.141-1.66 2.095-4.078 2.625-6.854a25.8 25.8 0 0 0 .256-1.63c.488-3.053.536-6.154-.178-8.547a5.64 5.64 0 0 0-.13-.393 6.78 6.78 0 0 0-.358-.847 6.045 6.045 0 0 0-3.12-3.047 4.72 4.72 0 0 0-3.104-.087c-1.51.444-2.91 1.646-4.028 3.008a3.541 3.541 0 0 0-1.174-1.897c-.63-.48-1.423-.486-2.063 1.034a66.548 66.548 0 0 0-1.84 6.48 237.75 237.75 0 0 0-2.43 11.305c-1.087 5.697-1.901 11.095-1.92 13.665a12.415 12.415 0 0 0 .406 3.816c.35 1.166.86 1.865 2.015 2.674.756.502 1.36.083 1.51-1.054.766-6.154 1.736-11.652 2.835-16.94 2.182 2.624 5.367 3.317 9.78 2.012 3.88-1.153 7.5-3.413 9.25-7.217.224.228.462.443.71.644a6.766 6.766 0 0 0 6.18 1.14c4.018-1.188 6.3-5.475 7.199-9.965a23.4 23.4 0 0 0 .44-5.195c1.396-.412 2.069-.612 3.074-1.513a58.506 58.506 0 0 0-.792 5.903c-.029.37-.051.709-.064 1.011a9.386 9.386 0 0 0 .248 3.076 4.367 4.367 0 0 0 2.07 2.66c1.193.738 1.807-.051 1.94-.872.323-2.41.704-4.992 1.199-7.466.647-3.22 1.474-6.248 2.56-8.486a34.445 34.445 0 0 1 1.872-3.411c1.33-2.106 2.412-3.182 2.758-3.288.126-.036-.09 1.443-.297 2.576a18.05 18.05 0 0 1-.188.915c-.62 2.605-1.616 6.045-1.778 9.127-.016.396-.023.773-.016 1.13.004.933.133 1.86.385 2.758.863 2.898 3.1 4.29 6.789 3.201 1.992-.59 3.915-2.129 5.312-4.01.937 1.028 2.286 1.52 4.06.996 2.849-.841 4.85-3.311 6.12-5.988.97 2.438 3.127 3.543 6.425 2.577 2.515-.744 4.678-3.015 5.926-5.604 1.898 1.723 4.63 2.338 7.879 1.34 3.459-1.073 6.514-3.865 8.189-6.964.049.267.113.53.191.79a3.712 3.712 0 0 0 1.655 2.296c.918.644 1.788.077 1.888-.799a158.188 158.188 0 0 1 1.837-11.385c.34 1.247.802 2.457 1.38 3.614 2.357 4.624 5.936 5.922 9.324 4.97 2.654-.751 4.277-2.49 5.312-4.33.934 1.389 2.425 2.165 4.494 1.553 2.851-.844 4.849-3.314 6.12-5.99.97 2.44 3.126 3.558 6.424 2.576 1.801-.531 3.421-1.849 4.652-3.504a4.2 4.2 0 0 0 1.316 1.072c1.161.645 1.788.078 1.914-.927.294-2.232.75-4.857 1.267-7.508.172-.866.346-1.732.524-2.592a138.026 138.026 0 0 0 4.811-2.635 23.944 23.944 0 0 0-.272 2.577 11.11 11.11 0 0 0 0 1.169c.003.92.132 1.836.382 2.721.831 2.783 2.974 4.268 6.327 3.276 3.353-.992 6.847-4.567 7.533-8.587.078-.551.09-1.11.035-1.665zM36.979 87.692a36.718 36.718 0 0 1-.999 4.335c-.892 2.957-2.04 4.921-3.233 5.279-.97.283-1.975-1.32-2.363-3.617a12.146 12.146 0 0 1 0-3.92l.892-3.542a24.63 24.63 0 0 1 1.264-3.768c1.17-2.712 2.567-4.432 3.376-4.326.323.03.624.664.924 1.665.123.424.22.854.291 1.289a19.895 19.895 0 0 1-.152 6.605zm19.748-4.4c-.062.387-.136.777-.217 1.167-.11.563-.24 1.101-.378 1.61-.931 3.375-2.457 5.475-3.705 5.9-.783.232-1.536-.454-2.018-2.067a11.601 11.601 0 0 1-.384-2.026 17.41 17.41 0 0 1-.068-.857c-.097-1.864.07-3.732.494-5.55.417-1.664 1-3.282 1.743-4.83.068-.145.142-.284.216-.422.068.097.14.196.217.293a9.588 9.588 0 0 0 4.542 3.024 40.504 40.504 0 0 1-.442 3.759zm.646-5.748c-.595-.387-1.125-1.195-1.487-1.99a6.445 6.445 0 0 1-.352-.918c-.265-.89.103-1.485.44-1.585.39-.116.937.087 1.186.921.103.374.174.755.213 1.14a10.34 10.34 0 0 1-.003 2.432h.003zM24.891 68.13c-.498-1.668-1.536-2.696-5.173-1.61-3.233.966-9.66 4.914-17.041 6.673a1.163 1.163 0 0 0-.833.673 1.153 1.153 0 0 0 .076 1.066c.505.88 1.536 1.481 2.874 1.694a157.246 157.246 0 0 0-.83 3.713c-.738 3.463-1.5 7.482-2.16 11.225-.821 4.65-1.478 8.879-1.717 11.092-.039.373-.068.692-.084.943a10.74 10.74 0 0 0 .427 3.266 5.848 5.848 0 0 0 1.84 2.899c.97.747 1.668.293 1.778-.767.4-3.014.614-4.757 1.18-7.871.443-2.458 1.109-5.775 2.263-11.253.588-2.815 1.293-6.203 2.189-10.342.058-.322.11-.644.152-.937.143-.914.231-1.836.265-2.76 2.282-.915 6.142-3.086 9.443-4.425-.323 1.397-.688 2.966-1.044 4.621a410.127 410.127 0 0 0-2.263 11.257 710.45 710.45 0 0 0-.95 5.124c-.376 2.405-.647 4.596-.715 5.951-.055 1.653.055 2.831.304 3.669a5.155 5.155 0 0 0 1.794 2.557c.97.802 1.782.261 1.908-.747.323-2.377.624-4.706.97-6.963.323-2.171.685-4.28 1.096-6.303.384-1.888.727-3.443 1.073-4.921.734-3.176 1.47-6.004 2.632-11.015.025-.126.055-.248.08-.374.511-2.422.89-4.702.466-6.135z" fill="url(#paint2_linear)"/><path d="M39.558 116.826c.038.114.076.266.076.38.573-.988 1.298-1.863 1.985-2.053.535-.152 1.26.342 1.45 1.065.115.418-.037 1.102-.343 2.318-.305 1.141-.572 2.547-.382 3.231.115.381.306.609.573.533.65-.19 1.26-1.673 1.565-3.117.077-.419.344-.457.611-.267.23.191.42.761.306 1.331-.23 1.178-1.298 2.585-2.406 2.889-1.26.38-1.985-.114-2.29-1.064-.305-.989.038-2.965.42-4.334.19-.722.382-1.292.229-1.254-.153.038-.916.836-1.603 2.318-.726 1.369-.993 3.46-1.26 5.36-.038.342-.267.532-.65.304-.343-.19-.572-.456-.724-.912-.077-.266-.115-.608-.115-1.026.038-1.141.725-4.182 1.336-6.272.153-.419.42-.495.726-.229.267.229.42.495.496.799z" fill="#C83F21"/><path d="M50.935 120.285c-.458.114-.916.114-1.222 0a3.033 3.033 0 0 1-.84.874 2.06 2.06 0 0 1-.649.304c-.61.19-1.412.114-2.137-.418-.497-.342-.802-.874-.993-1.482-.61-2.053.725-5.778 2.405-6.31.764-.229 1.107 0 1.603.418.115.076.23.152.382.228.42.228.764.456.993 1.178.572 1.863 0 3.573-.344 4.296.076.038.23.038.305 0 .764-.228.993-1.331 1.298-2.471.077-.19.115-.304.23-.342.267-.076.534.114.61.38.077.228.077.76 0 1.178-.152.951-.61 1.863-1.641 2.167zm-3.512.456c.305-.076.649-.494.954-1.064-.878-.532-1.45-1.293-1.68-1.977-.114.798-.152 1.597.077 2.319.114.342.305.798.649.722zm.572-3.535c.115.418.344 1.026.764 1.406.19-.76.496-2.356.076-3.687-.038-.114-.153-.532-.229-.532-.382.114-1.03 1.368-.61 2.813z" fill="#C83F21"/><path d="M58.455 111.809c-.114.836-.305 4.067 0 5.094.039.19.115.304.153.266.038 0 .115-.19.267-.646.382-1.103.726-1.939 2.215-7.261.076-.228.19-.38.381-.418.42-.114 1.184.342 1.336.836.077.228.077.456 0 1.141-.076.646-.19 1.786-.381 4.029-.038.266 0 .684.076 1.026.076.304.229.494.496.418.611-.19 1.336-1.938 1.604-3.079.038-.228.114-.304.229-.342.267-.076.496.114.61.57.306 1.065-.954 3.27-2.405 3.688-1.297.38-2.023-.19-2.29-1.065-.115-.38-.153-.836-.19-1.33-.23.912-.535 1.749-.84 2.433-.268.57-.726.988-1.413 1.178-.726.228-1.336-.19-1.566-.95a10.766 10.766 0 0 1-.305-2.053c-.382 1.407-.802 2.699-1.336 3.535-.344.533-.84.799-1.298.913-.458.114-1.298.038-1.565-.761-.267-.912-.153-1.52-.076-1.938.114-.723.572-.989.916-1.065.42-.114.61.076.649.152 0 .038 0 .114-.038.266-.153.419-.23 1.293-.039 2.053.038.19.115.304.153.304.076-.038.153-.076.382-.57.343-.722.687-1.672 1.221-3.573.42-1.369.726-3.079 1.031-4.03.076-.228.153-.342.382-.418.458-.114 1.336.304 1.45.723.23.266.268.456.191.874z" fill="#C83F21"/><path d="M71.091 114.355c-.458.114-.916.114-1.222 0a3.036 3.036 0 0 1-.84.874 2.062 2.062 0 0 1-.648.304c-.611.19-1.413.114-2.138-.418-.496-.342-.802-.874-.993-1.482-.61-2.053.725-5.778 2.405-6.31.764-.229 1.107 0 1.604.418.114.076.229.152.381.228.42.228.764.456.993 1.178.573 1.863 0 3.573-.344 4.296.077.038.23.038.306 0 .763-.228.992-1.331 1.298-2.471.076-.19.114-.304.229-.342.267-.076.534.114.61.38.077.228.077.76 0 1.178-.152.913-.61 1.863-1.641 2.167zm-3.512.418c.305-.076.649-.494.954-1.064-.878-.532-1.45-1.293-1.68-1.977-.114.798-.152 1.597.077 2.319.114.342.305.798.649.722zm.61-3.535c.115.418.344 1.026.764 1.406.191-.76.496-2.356.077-3.687-.039-.114-.153-.532-.23-.532-.381.152-1.068 1.368-.61 2.813z" fill="#C83F21"/><path d="M79.718 110.745c-.382.874-.955 1.748-1.756 1.977-.84.228-1.451-.229-1.718-.951-.382.837-.993 1.673-1.794 1.939-.879.266-1.528-.266-1.795-1.102a3.977 3.977 0 0 1-.152-1.369c.076-1.292.458-3.459 1.107-5.322.076-.266.152-.342.343-.38.496-.152.84.494.955.836.152.533.19 1.141-.038 1.901-.268 1.026-.84 3.193-.573 4.143.076.267.153.419.305.381.344-.114.955-1.787 1.45-3.422.573-2.128.688-3.535 1.108-4.599.076-.19.153-.304.344-.38.42-.114.878.494.954.798.267.912.076 1.673-.267 2.927-.153.608-.344 1.368-.458 2.091-.077.456-.038.836.038 1.102.076.266.19.494.382.418.305-.076.916-1.824 1.374-3.459.61-2.129.725-3.535 1.107-4.6.076-.19.153-.304.344-.38.458-.152.84.494.954.837.19.608.19.912.114 1.406-.152.912-.61 2.281-.801 3.611-.038.456-.038.875.038 1.179.076.304.267.494.458.418.84-.266 1.336-1.711 1.642-3.155.038-.152.114-.228.267-.266.229-.076.496.19.572.456.039.152.115.532-.229 1.824-.343 1.331-.725 3.308-.725 4.904 0 .152-.076.304-.267.342a.513.513 0 0 1-.344-.038c-.42-.19-.649-.532-.763-.912-.191-.608-.077-1.026.343-2.471-.114.038-.267.114-.381.152-1.107.38-1.833 0-2.138-.836z" fill="#C83F21"/><path d="M88.918 105.954c.534 1.786-.535 3.763-2.482 4.333-1.26.38-2.1-.266-2.367-1.216-.114-.342-.114-.646-.076-1.179.076-1.064.382-2.318 1.03-5.321.039-.19.077-.304.344-.38.42-.115.955.456 1.107.95.153.494.039 1.292-.114 2.053.19-.114.42-.191.649-.267.878-.304 1.68.191 1.909 1.027zm-2.215-.076a1.113 1.113 0 0 0-.687.57c-.267.494-.42 1.711-.19 2.395.114.418.343.646.534.608.687-.19 1.298-1.863.954-2.965-.152-.418-.381-.684-.61-.608zm7.064-.76c-.305-1.064-.229-2.433.267-4.79-.801.229-1.336.191-1.527.077-.076-.077-.114-.115-.114-.153-.038-.114.076-.266.344-.342.61-.19 1.068-.342 1.488-.532.802-3.84 1.985-6.424 2.787-6.69.344-.114.802 0 1.107.266.496.38.687.722.84 1.292.42 1.445-.725 3.27-2.214 4.41l-.687.532-.077.418c.306-.342.688-.532 1.031-.646.878-.266 1.909.57 2.252 1.711.23.798.23 1.634.039 2.623-.459 2.432-1.413 3.535-2.596 3.877-1.146.342-2.444-.456-2.94-2.053zm3.207-5.17c-.535.152-1.03 1.027-1.413 2.205-.305 1.103-.381 2.433-.114 3.307.19.608.42.875.649.837 1.26-.381 1.985-3.764 1.412-5.664-.114-.457-.305-.76-.534-.685zm.687-4.333c.23-.646.267-1.179.153-1.597-.038-.076-.077-.152-.115-.152-.152.038-.42.647-.687 1.52-.19.647-.382 1.445-.61 2.358.61-.76 1.03-1.483 1.26-2.13zm12.597 7.147c-.459.114-.917.114-1.222 0a3.033 3.033 0 0 1-.84.874 2.067 2.067 0 0 1-.649.304c-.611.191-1.412.115-2.138-.418-.496-.342-.801-.874-.992-1.482-.611-2.053.725-5.778 2.405-6.31.763-.229 1.107 0 1.603.418.115.076.229.152.382.228.42.228.763.456.992 1.178.573 1.863 0 3.574-.343 4.296a.422.422 0 0 0 .305 0c.764-.228.993-1.331 1.298-2.471.077-.19.115-.304.229-.342.267-.076.535.114.611.38.076.228.076.76 0 1.178-.114.913-.611 1.863-1.641 2.167zm-3.513.418c.306-.076.649-.494.955-1.064-.878-.532-1.451-1.293-1.68-1.977-.114.798-.153 1.597.076 2.319.115.342.344.836.649.722zm.611-3.497c.115.418.344 1.026.764 1.406.191-.76.496-2.356.076-3.687-.038-.114-.153-.532-.229-.532-.382.114-1.069 1.33-.611 2.813z" fill="#C83F21"/><path d="M114.304 104.701c0-.722.306-2.167.535-3.269-.305.304-.649.57-.954.646-1.108.342-1.833-.342-2.138-1.444-.229-.799-.191-1.901.191-3.08.839-2.585 1.985-3.8 2.977-4.105.649-.19 1.184 0 1.527.456.764-3.573 1.184-5.474 1.451-6.348.076-.152.153-.304.344-.342.419-.114.839.57.916.836.152.494.152 1.293-.038 2.243-.077.266-.23.798-.688 2.585.306-.304.611-.494.993-.608.878-.267 1.68.494 2.023 1.672.229.837.229 2.167-.038 3.231-.229.95-.534 1.749-.916 2.357 1.412-.646 2.138-2.167 2.367-3.46.038-.19.114-.265.305-.341.306-.076.458.152.535.418.076.266.114.608.038 1.102-.344 1.52-1.756 2.7-3.589 3.269-.954.267-1.718.305-2.443-.076-.305-.152-.573-.304-.725-.494-.382 1.673-.84 4.296-1.107 6.196-.039.19-.115.267-.268.343-.152.038-.267 0-.496-.114-.229-.115-.534-.305-.649-.685a3.597 3.597 0 0 1-.153-.988zm1.298-6.918c.382-1.521.459-2.547.306-3.041-.077-.229-.153-.343-.267-.305-.497.152-1.375 1.635-1.871 3.46-.344 1.064-.344 2.128-.153 2.737.115.342.268.532.42.494.611-.114 1.107-1.33 1.565-3.346zm4.009-3.954c-.038-.19-.191-.646-.42-.57-.458.114-.916.836-1.642 3.915-.114.57-.229 1.14-.076 1.597.115.342.458.95.802.836.649-.19 1.069-1.482 1.336-3.231.153-1.026.229-1.787 0-2.547z" fill="#C83F21"/><path d="M137.784 93.03c-.382 1.445-1.642 2.624-3.016 3.042-1.527.456-2.825.418-3.665-.494-.42 1.938-.763 4.067-1.031 6.082-.038.38-.267.57-.648.266a1.634 1.634 0 0 1-.535-.798 5.37 5.37 0 0 1-.153-1.255c.039-1.178.573-4.371 1.146-7.07a2.015 2.015 0 0 1-1.031.494c.076 1.977-.802 4.562-2.52 5.094-.61.19-1.336.152-2.099-.38-.497-.343-.802-.875-.993-1.445-.267-.836-.229-1.825 0-2.85.42-1.712 1.298-3.004 2.52-3.384.534-.152.954-.076 1.45.304.84.532 1.336.684 1.566 1.977.954-.495 1.565-2.015 2.061-3.612.153-.494.496-.532.802-.19.114.114.229.304.305.494.344-.494.802-.912 1.374-1.102.382-.114.84-.076 1.222.152.534.304.802.76.993 1.33.229.799.229 1.901.076 2.852-.191 1.026-.496 2.128-.916 2.737 1.221-.685 2.138-2.281 2.29-3.46.077-.456.497-.456.687-.114.191.343.268.723.115 1.33zm-12.14 4.486c.496-.152 1.069-1.102 1.336-2.47.115-.57.191-1.14.229-1.673-.61-.152-1.298-.57-1.603-1.026-.611 1.254-1.069 3.155-.611 4.6.115.493.344.683.649.57zm1.604-5.968c-.077-.266-.268-.342-.382-.304-.115.038-.229.228-.153.532.115.343.344.799.611.989.038-.532 0-.989-.076-1.217zm5.306 3.878c.534-.19 1.069-1.597 1.336-3.231.153-1.027.153-2.015-.038-2.623-.115-.343-.229-.57-.344-.533-.343.114-1.069 1.103-1.489 2.7l-.343 1.254c-.038.608 0 1.216.153 1.71.152.495.419.837.725.723z" fill="#C83F21"/><path d="M143.7 86.644c-.115.837-.306 4.068 0 5.094.038.19.114.304.152.266.038 0 .115-.19.267-.646.382-1.102.726-1.939 2.215-7.26.076-.229.191-.38.381-.419.42-.114 1.184.342 1.337.837.076.228.076.456 0 1.14-.077.646-.191 1.787-.382 4.03-.038.265 0 .684.076 1.026.076.304.229.494.496.418.611-.19 1.337-1.939 1.604-3.08.038-.227.114-.303.229-.341.267-.076.496.114.611.57.305 1.064-.955 3.269-2.405 3.687-1.298.38-2.024-.19-2.291-1.064-.114-.38-.153-.837-.191-1.33a14.977 14.977 0 0 1-.84 2.432c-.267.57-.725.989-1.412 1.179-.725.228-1.336-.19-1.565-.95a10.699 10.699 0 0 1-.306-2.053c-.381 1.406-.801 2.698-1.336 3.535-.343.532-.84.798-1.298.912-.458.114-1.298.038-1.565-.76-.267-.913-.153-1.52-.076-1.939.114-.722.572-.988.916-1.064.42-.114.611.076.649.152 0 .038 0 .114-.038.266-.153.418-.229 1.292-.039 2.053.039.19.115.304.153.304.077-.038.153-.076.382-.57.343-.723.687-1.673 1.222-3.574.419-1.368.725-3.079 1.03-4.03.077-.227.153-.341.382-.417.458-.114 1.336.304 1.451.722.229.228.229.418.191.874z" fill="#C83F21"/><path d="M156.489 88.125c.076.304.191.494.305.456.688-.19 1.337-1.71 1.642-3.155.038-.152.076-.228.229-.266.267-.076.573.228.649.494.076.228.076.532 0 .912-.229 1.217-1.451 2.585-2.596 2.927-.954.267-1.641-.038-1.947-.95-.114-.38-.114-1.483-.076-2.319-.382 1.33-.916 2.89-1.413 3.688-.343.532-.763.76-1.221.912-.649.19-1.413.076-1.718-.912-.229-.723-.115-1.255-.038-1.635.114-.722.61-1.102.916-1.178.42-.115.649 0 .687.114 0 .038 0 .114-.038.228-.191.684-.306 1.406-.115 2.128.039.19.153.305.268.266.114-.037.19-.113.458-.608.343-.76.61-1.634 1.183-3.535.382-1.406.725-3.117.993-4.03.076-.227.152-.342.42-.418.534-.151 1.298.305 1.412.723.076.228.115.456.076.912-.152 1.445-.343 4.334-.076 5.246z" fill="#C83F21"/><path d="M162.216 84.743c-.458.114-.955.152-1.451 0 0 .418.076.799.153 1.14.229.837.763 1.293 1.298 1.141 1.412-.418 2.252-2.167 2.672-3.535.114-.342.344-.456.611-.152.114.152.267.684.114 1.292-.458 1.369-1.679 2.7-3.13 3.155-1.718.532-3.016-.304-3.474-1.824-.191-.685-.229-1.445-.076-2.32.381-2.28 1.603-3.686 2.71-4.029.267-.076.496-.114.687-.038.611.153 1.069.343 1.451.609.153.152.305.38.382.646.381 1.102-.306 3.421-1.947 3.915zm-1.413-.798a.928.928 0 0 0 .458 0c.458-.114.878-.874 1.107-1.483.344-.874.458-1.862.191-1.976-.343-.152-1.374 1.406-1.756 3.459z" fill="#C83F21"/><path d="M166.223 86.453c-.344-.19-.573-.456-.726-.912-.076-.266-.114-.608-.114-1.027.038-.19.038-.494.076-.798-.381.076-.305-.95.229-1.216.268-1.369.649-2.965 1.069-4.258.153-.418.42-.494.726-.228.267.228.458.57.572.912.115.343.115.685.038 1.065-.076.418-.229.95-.343 1.482.572-.304 1.107-.608 1.565-.95.229-1.14.496-2.28.725-2.965.153-.456.382-.57.726-.342.229.152.458.418.61.836.191.646.039 1.483-.229 2.623-.343 1.407-.496 2.661-.343 3.231.076.304.229.456.382.38.763-.228 1.488-1.824 1.679-3.23.077-.419.382-.381.649-.115.229.266.344.722.268 1.255-.23 1.33-1.413 2.547-2.52 2.889-1.107.342-1.832-.152-2.138-1.103-.114-.342-.153-.76-.114-1.292 0-.228.038-.532.076-.875a21.21 21.21 0 0 1-1.603.875 93.696 93.696 0 0 0-.611 3.383c-.077.418-.267.608-.649.38z" fill="#C83F21"/><path d="M179.546 82.765c-1.107.342-1.832-.038-2.138-.874-.419.912-1.107 1.71-2.061 2.015-.954.266-1.527-.304-1.794-1.103a3.964 3.964 0 0 1-.153-1.368c.076-1.293.458-3.46 1.145-5.398.153-.38.497-.456.802-.228.267.19.458.494.534.76.23.76-.496 3.345-.725 4.942-.114.836.038 1.558.458 1.444.497-.152 1.107-1.71 1.604-3.459.572-2.129.687-3.535 1.107-4.6.152-.418.42-.608.763-.342.267.19.458.495.573.875.191.646.038 1.558-.306 2.85-.267 1.027-.649 2.51-.42 3.232.115.342.268.494.497.418.611-.19 1.183-1.749 1.527-3.117.076-.38.382-.532.649-.228.114.152.343.646.229 1.292-.191 1.217-1.145 2.547-2.291 2.89z" fill="#C83F21"/><path d="M187.679 80.333c-1.107.342-1.833-.038-2.138-.874-.42.912-1.107 1.71-2.062 2.014-.954.266-1.527-.304-1.794-1.102a3.988 3.988 0 0 1-.153-1.368c.077-1.293.458-3.46 1.146-5.398.152-.38.496-.457.801-.229.268.19.458.495.535.76.229.761-.496 3.346-.726 4.943-.114.836.039 1.558.459 1.444.496-.152 1.107-1.71 1.603-3.46.573-2.128.687-3.534 1.107-4.599.153-.418.42-.608.764-.342.267.19.458.494.572.874.191.647.038 1.559-.305 2.851-.267 1.027-.649 2.51-.42 3.232.114.342.267.494.496.418.611-.19 1.184-1.749 1.527-3.117.076-.38.382-.533.649-.228.115.151.344.646.229 1.292-.191 1.254-1.145 2.547-2.29 2.889zm-87.219 38.848c-.382 1.292-1.45 2.433-2.825 3.459-.267 2.699-.802 5.93-2.1 7.108-.382.304-.878.38-1.45-.038-.382-.304-.802-.722-.993-1.292-.496-1.673.725-4.144 2.787-5.588l.076-.684c-.343.418-.763.722-1.26.874-1.069.304-1.908-.266-2.252-1.368-.802-2.661 1.45-6.691 3.283-7.223.611-.19 1.145.038 1.413.418.038-.152.076-.38.152-.608.115-.494.459-.57.764-.38.229.152.458.456.572.874.153.494.077 1.065-.114 2.129-.267 1.368-.61 2.927-.802 4.523.955-1.064 1.642-2.128 2.1-3.345.153-.38.496-.494.611-.076.152.304.191.723.038 1.217zm-4.161-.418c.343-1.483.42-2.509.267-2.965-.076-.229-.153-.305-.305-.267-.65.19-2.635 3.954-1.986 6.121.115.342.268.57.42.532.611-.19 1.146-1.597 1.604-3.421zm-1.756 7.83c-.268 1.065-.268 2.015 0 2.129.19.076.496-.608.801-1.787.191-.76.344-1.71.42-2.737a6.22 6.22 0 0 0-1.221 2.395z" fill="#C83F21"/><path d="M106.3 119.219c-.458.114-.916.114-1.222 0a3.042 3.042 0 0 1-.839.874 2.067 2.067 0 0 1-.649.304c-.611.19-1.413.114-2.138-.418-.497-.342-.802-.874-.993-1.483-.61-2.052.726-5.778 2.405-6.31.764-.228 1.107 0 1.604.418.114.076.229.152.381.229.42.228.764.456.993 1.178.573 1.863 0 3.573-.344 4.295a.425.425 0 0 0 .306 0c.763-.228.992-1.33 1.298-2.47.076-.191.114-.305.229-.343.267-.076.534.114.611.381.076.228.076.76 0 1.178-.153.95-.611 1.863-1.642 2.167zm-3.512.418c.305-.076.649-.494.954-1.064-.878-.533-1.45-1.293-1.679-1.977-.115.798-.153 1.596.076 2.319.114.38.305.836.649.722zm.573-3.497c.114.418.343 1.026.763 1.406.191-.76.496-2.357.076-3.687-.038-.114-.152-.532-.229-.532-.381.114-1.03 1.33-.61 2.813z" fill="#C83F21"/><path d="M109.622 114.619c-.191.913-.42 2.129-.611 3.802-.038.304-.344.494-.649.266-.267-.152-.42-.38-.573-.76a5.313 5.313 0 0 1-.152-1.331c.038-1.786.152-2.927 1.107-5.702.191-.456.496-.646.878-.152.153.19.305.38.382.646.076.266.076.571 0 1.065-.039.304-.153.798-.306 1.52.077-.076.115-.076.191-.152 1.336-.95 2.252-2.395 3.016-4.105.305-.646.878-.456 1.069.19.076.19.076.494 0 .76-.306 1.255-.878 2.433-2.558 3.839.496 1.407 1.184 2.205 1.832 2.129.649-.114 1.184-1.786 1.375-3.041.076-.532.42-.646.725-.228.153.228.267.684.115 1.254-.229.875-.726 2.395-2.329 2.851-1.336.419-2.825-.304-3.512-2.851z" fill="#C83F21"/><path d="M122.984 112.415c-.42 1.369-1.451 2.395-2.787 3.497-.305 2.775-.687 6.12-2.138 7.223-.382.304-.763.418-1.412-.038-.382-.304-.84-.799-1.031-1.369a2.257 2.257 0 0 1-.076-.912c.114-1.787 1.298-3.345 2.863-4.638l.076-.722c-.382.494-.802.798-1.374.988-.955.267-1.565-.304-1.794-1.102a3.855 3.855 0 0 1-.153-1.368c.076-1.293.42-3.46 1.107-5.398.153-.38.42-.494.725-.266.268.19.535.494.611.798.153.456.076 1.064-.153 1.901a17.785 17.785 0 0 0-.61 3.041c-.077.76 0 1.558.496 1.406.496-.152.992-1.482 1.451-3.307.61-2.471.801-3.763 1.03-4.562.153-.418.382-.532.649-.38.382.19.535.456.649.837.115.38.153.798.038 1.33-.229 1.216-.649 3.307-.916 5.284.955-1.027 1.642-2.281 1.985-3.269.153-.418.42-.532.573-.304.267.228.344.722.191 1.33zm-5.956 7.793c-.19 1.026-.114 1.824.115 1.938.153.076.382-.57.649-1.634.191-.798.382-1.863.496-3.003-.687.874-1.107 1.862-1.26 2.699z" fill="#C83F21"/><path d="M128.977 106.257c-.115.837-.306 4.068 0 5.094.038.19.114.304.153.266.038 0 .114-.19.267-.646.382-1.102.725-1.939 2.214-7.261.076-.228.191-.38.382-.418.42-.114 1.183.342 1.336.837.076.228.076.456 0 1.14-.076.646-.191 1.787-.382 4.029-.038.267 0 .685.076 1.027.077.304.23.494.497.418.611-.19 1.336-1.939 1.603-3.079.038-.228.115-.304.229-.342.267-.076.496.114.611.57.305 1.064-.954 3.269-2.405 3.687-1.298.38-2.023-.19-2.291-1.064-.114-.38-.152-.836-.19-1.331-.23.913-.535 1.749-.84 2.433-.268.57-.726.989-1.413 1.179-.725.228-1.336-.19-1.565-.951a10.702 10.702 0 0 1-.305-2.052c-.382 1.406-.802 2.699-1.337 3.535a2.12 2.12 0 0 1-1.297.912c-.459.114-1.298.038-1.566-.76-.267-.912-.152-1.521-.076-1.939.114-.722.573-.988.916-1.064.42-.114.611.076.649.152 0 .038 0 .114-.038.266-.153.418-.229 1.292-.038 2.053.038.19.114.304.153.304.076-.038.152-.076.381-.57.344-.723.687-1.673 1.222-3.574.42-1.368.725-3.079 1.031-4.029.076-.228.152-.342.381-.418.458-.114 1.336.304 1.451.722.229.266.229.456.191.874z" fill="#C83F21"/><path d="M138.941 106.903c-.458.114-.955.152-1.451 0 0 .418.076.798.153 1.14.229.836.763 1.293 1.298 1.141 1.412-.419 2.252-2.167 2.672-3.536.115-.342.344-.456.611-.152.114.152.267.685.114 1.293-.458 1.368-1.679 2.699-3.13 3.155-1.718.532-3.016-.304-3.474-1.825-.191-.684-.229-1.444-.076-2.319.381-2.28 1.603-3.687 2.71-4.029.267-.076.496-.114.687-.038.611.152 1.069.342 1.451.608.153.152.305.38.382.646.343 1.103-.306 3.46-1.947 3.916zm-1.413-.799a.908.908 0 0 0 .458 0c.458-.114.878-.874 1.107-1.482.344-.874.459-1.863.191-1.977-.343-.152-1.374 1.407-1.756 3.459z" fill="#C83F21"/><path d="M142.95 108.612c-.343-.191-.572-.457-.725-.913-.076-.266-.115-.608-.115-1.026.039-.19.039-.494.077-.798-.382.076-.306-.951.229-1.217.267-1.368.649-2.965 1.069-4.257.152-.418.42-.495.725-.228.267.228.458.57.573.912.114.342.114.684.038 1.064-.076.418-.229.951-.344 1.483.573-.304 1.107-.608 1.566-.951.229-1.14.496-2.28.725-2.965.153-.456.382-.57.725-.342.229.152.458.418.611.837.191.646.038 1.482-.229 2.622-.344 1.407-.496 2.661-.344 3.232.077.304.229.456.382.38.764-.228 1.489-1.825 1.68-3.231.076-.419.382-.381.649-.114.229.266.343.722.267 1.254-.229 1.33-1.412 2.547-2.52 2.889-1.107.342-1.832-.152-2.137-1.102-.115-.342-.153-.761-.115-1.293 0-.228.038-.532.076-.874-.496.304-1.068.608-1.603.874a96.272 96.272 0 0 0-.611 3.383c-.076.419-.267.609-.649.381z" fill="#C83F21"/><path d="M152.532 98.692c.038.152.076.304.076.532.573-1.026 1.413-2.053 2.024-2.205.61-.19 1.183.38 1.412 1.178.611-.988 1.413-1.938 2.023-2.09.535-.152.993.266 1.184.874.191.646.038 1.597-.382 3.003-.267.95-.534 1.939-.344 2.585.115.418.42.684.688.57.572-.19 1.107-1.748 1.45-3.079.077-.342.267-.418.497-.304.267.152.496.836.381 1.331-.191 1.254-1.26 2.546-2.405 2.889-1.26.38-2.176-.114-2.481-1.103-.115-.342-.153-.76-.077-1.292.115-.723.42-1.9.649-2.7.23-.722.497-1.444.344-1.368-.153.038-.496.342-1.26 1.787-1.03 1.901-1.412 3.915-1.679 5.892-.077.418-.344.532-.726.342s-.572-.418-.725-.912c-.076-.304-.115-.951-.076-1.483.076-.76.381-1.938.648-2.851.268-.988.573-1.862.382-1.786-.152.038-.763.684-1.527 2.242-.725 1.445-1.069 3.384-1.298 5.322-.038.342-.229.494-.611.342a1.242 1.242 0 0 1-.725-.836c-.076-.266-.114-.608-.076-1.064.076-1.217.649-4.22 1.26-6.31.152-.419.42-.495.725-.228.382.151.573.418.649.722z" fill="#C83F21"/><path d="M167.229 101.199c-.458.114-.916.114-1.221 0a3.046 3.046 0 0 1-.84.874 2.067 2.067 0 0 1-.649.304c-.611.19-1.413.114-2.138-.418-.496-.342-.802-.874-.993-1.483-.61-2.052.726-5.778 2.405-6.31.764-.228 1.108 0 1.604.418.114.076.229.152.382.228.419.228.763.457.992 1.179.573 1.862 0 3.573-.343 4.295a.422.422 0 0 0 .305 0c.763-.228.992-1.33 1.298-2.47.076-.19.114-.305.229-.343.267-.076.534.114.611.38.076.229.076.76 0 1.179-.115.95-.611 1.862-1.642 2.167zm-3.512.418c.305-.076.649-.494.954-1.065-.878-.532-1.45-1.292-1.679-1.976-.115.798-.153 1.596.076 2.318.115.381.344.837.649.723zm.611-3.498c.114.419.343 1.027.763 1.407.191-.76.497-2.357.077-3.687-.038-.114-.153-.532-.229-.532-.382.114-1.069 1.368-.611 2.813z" fill="#C83F21"/><path d="M168.795 98.235c-.306-1.065-.23-2.433.267-4.79-.802.228-1.336.19-1.527.076-.077-.076-.115-.114-.115-.152-.038-.114.077-.266.344-.342.611-.19 1.069-.342 1.489-.532.801-3.84 1.985-6.425 2.786-6.69.344-.115.802 0 1.108.265.496.38.687.723.839 1.293.42 1.444-.725 3.269-2.214 4.41l-.687.532-.076.418c.305-.342.687-.532 1.03-.647.878-.266 1.909.57 2.253 1.711.229.798.229 1.635.038 2.623-.458 2.433-1.413 3.535-2.596 3.877-1.183.342-2.481-.456-2.939-2.052zm3.206-5.17c-.534.152-1.03 1.026-1.412 2.205-.306 1.102-.382 2.432-.115 3.307.191.608.42.874.649.836 1.26-.38 1.985-3.763 1.413-5.664-.115-.456-.306-.76-.535-.684zm.687-4.334c.229-.646.268-1.178.153-1.596-.038-.076-.076-.152-.114-.152-.153.038-.42.646-.688 1.52-.19.647-.381 1.445-.61 2.357.61-.76 1.03-1.483 1.259-2.129z" fill="#C83F21"/><defs><linearGradient id="paint0_linear" x1="63.872" y1="-17.378" x2="87.431" y2="27.966" gradientUnits="userSpaceOnUse"><stop offset=".16" stop-color="#CA4524"/><stop offset=".87" stop-color="#F0AB52"/></linearGradient><linearGradient id="paint1_linear" x1="116.535" y1="78.526" x2="96.931" y2="27.389" gradientUnits="userSpaceOnUse"><stop stop-color="#727272"/><stop offset="1" stop-color="#D8D8D8"/></linearGradient><linearGradient id="paint2_linear" x1="83.68" y1="35.414" x2="104.961" y2="102.284" gradientUnits="userSpaceOnUse"><stop stop-color="#CA4524"/><stop offset=".78" stop-color="#F0AB52"/></linearGradient></defs></svg>