<svg width="16" height="16" fill="none" xmlns="http://www.w3.org/2000/svg"><path d="M3.218 6.924a13.465 13.465 0 0 0 5.858 5.858l1.955-1.955c.24-.24.596-.32.907-.214a10.1 10.1 0 0 0 3.173.507c.489 0 .889.4.889.889v3.102c0 .489-.4.889-.889.889C6.764 16 0 9.236 0 .889 0 .4.4 0 .889 0H4c.489 0 .889.4.889.889 0 1.111.178 2.178.507 3.173a.892.892 0 0 1-.223.907L3.218 6.924z" fill="url(#paint0_linear)"/><defs><linearGradient id="paint0_linear" x1="8" y1="-.039" x2="8" y2="15.953" gradientUnits="userSpaceOnUse"><stop stop-color="#C83F21"/><stop offset="1" stop-color="#F0AB52"/></linearGradient></defs></svg>